<svg width="400" height="400" viewBox="0 0 400 400" fill="none" xmlns="http://www.w3.org/2000/svg">
<rect width="400" height="400" fill="white"/>
<rect x="105.5" y="302.5" width="9" height="9" stroke="black" stroke-opacity="0.67"/>
<path d="M396.441 311.5H4.51074L114.864 51.6973L396.441 311.5Z" stroke="black" stroke-width="2"/>
<line x1="115.475" y1="51.8452" x2="200.475" y2="312.845" stroke="#0900FF"/>
<line x1="114.5" y1="51" x2="114.5" y2="312" stroke="#AC0000"/>
<path d="M100.11 191.896L106.655 191.932L106.64 194.608C106.636 195.313 106.474 195.871 106.154 196.284C105.833 196.697 105.412 196.902 104.889 196.9C104.491 196.897 104.184 196.778 103.966 196.541C103.752 196.304 103.607 196.001 103.532 195.631C103.497 195.872 103.411 196.106 103.273 196.333C103.135 196.562 102.947 196.751 102.707 196.901C102.471 197.05 102.181 197.124 101.837 197.122C101.502 197.12 101.202 197.033 100.939 196.861C100.676 196.689 100.468 196.444 100.317 196.125C100.165 195.806 100.09 195.425 100.093 194.981L100.11 191.896ZM101.025 192.856L101.013 194.986C101.011 195.333 101.092 195.605 101.256 195.802C101.42 195.999 101.643 196.098 101.928 196.099C102.266 196.101 102.532 196.005 102.726 195.81C102.923 195.615 103.023 195.344 103.025 194.997L103.036 192.867L101.025 192.856ZM103.905 192.871L103.896 194.593C103.895 194.863 103.93 195.095 104.003 195.288C104.079 195.482 104.186 195.63 104.324 195.733C104.466 195.839 104.633 195.893 104.826 195.894C105.102 195.895 105.319 195.781 105.476 195.552C105.636 195.323 105.718 195.006 105.72 194.603L105.729 192.881L103.905 192.871ZM104.244 199.526L104.234 201.401C104.23 202.168 104.032 202.754 103.641 203.158C103.249 203.562 102.755 203.763 102.159 203.759C101.767 203.757 101.41 203.665 101.09 203.481C100.773 203.297 100.52 203.029 100.332 202.676C100.146 202.322 100.055 201.89 100.058 201.379L100.073 198.634L106.618 198.67L106.613 199.676L101.005 199.645L100.995 201.384C100.993 201.782 101.097 202.109 101.305 202.366C101.514 202.622 101.783 202.752 102.113 202.754C102.459 202.755 102.743 202.629 102.963 202.375C103.183 202.12 103.294 201.794 103.296 201.396L103.307 199.521L104.244 199.526ZM100.039 204.788L106.585 204.823L106.579 205.829L100.034 205.793L100.039 204.788ZM99.8729 210.293C99.8763 209.679 100.024 209.151 100.316 208.71C100.608 208.268 101.009 207.929 101.519 207.694C102.029 207.458 102.611 207.342 103.264 207.345C103.929 207.349 104.515 207.474 105.022 207.721C105.532 207.971 105.929 208.317 106.214 208.759C106.501 209.204 106.643 209.722 106.64 210.312C106.637 210.773 106.55 211.187 106.378 211.555C106.205 211.924 105.965 212.225 105.657 212.459C105.349 212.693 104.99 212.838 104.58 212.892L104.586 211.886C104.885 211.811 105.15 211.642 105.381 211.379C105.616 211.119 105.734 210.768 105.736 210.325C105.739 209.933 105.638 209.588 105.435 209.292C105.235 208.998 104.951 208.768 104.583 208.601C104.217 208.437 103.787 208.354 103.293 208.351C102.787 208.348 102.346 208.425 101.97 208.582C101.594 208.742 101.302 208.968 101.093 209.259C100.884 209.554 100.778 209.9 100.776 210.298C100.775 210.559 100.819 210.796 100.909 211.01C100.999 211.223 101.128 211.405 101.298 211.553C101.468 211.702 101.672 211.808 101.91 211.872L101.904 212.878C101.518 212.819 101.171 212.676 100.863 212.45C100.557 212.227 100.314 211.931 100.134 211.564C99.9575 211.199 99.8703 210.776 99.8729 210.293ZM99.8364 216.996C99.8396 216.405 99.9831 215.887 100.267 215.443C100.55 215.001 100.946 214.656 101.453 214.409C101.96 214.165 102.551 214.044 103.228 214.048C103.909 214.052 104.504 214.179 105.011 214.429C105.518 214.681 105.911 215.03 106.19 215.475C106.469 215.922 106.607 216.442 106.603 217.032C106.6 217.623 106.457 218.14 106.173 218.581C105.889 219.026 105.493 219.37 104.983 219.615C104.473 219.862 103.877 219.984 103.195 219.98C102.519 219.976 101.929 219.848 101.425 219.595C100.92 219.345 100.529 218.997 100.25 218.549C99.971 218.104 99.8332 217.587 99.8364 216.996ZM100.74 217.001C100.737 217.449 100.85 217.819 101.079 218.11C101.307 218.401 101.609 218.618 101.983 218.759C102.357 218.9 102.763 218.972 103.201 218.974C103.638 218.977 104.046 218.909 104.425 218.772C104.803 218.635 105.11 218.422 105.344 218.134C105.579 217.845 105.698 217.476 105.7 217.028C105.702 216.579 105.588 216.209 105.357 215.918C105.125 215.627 104.821 215.411 104.444 215.269C104.067 215.128 103.66 215.056 103.222 215.054C102.785 215.051 102.378 215.119 102.002 215.256C101.626 215.393 101.323 215.606 101.091 215.894C100.859 216.183 100.742 216.552 100.74 217.001ZM105.561 220.672L106.498 220.678L106.469 225.996L105.532 225.991L105.543 223.843L99.9356 223.812L99.9411 222.807L105.549 222.837L105.561 220.672ZM99.7539 229.012C99.7561 228.598 99.8363 228.222 99.9944 227.884C100.155 227.547 100.385 227.28 100.685 227.083C100.987 226.886 101.351 226.788 101.777 226.79C102.152 226.792 102.456 226.868 102.688 227.017C102.923 227.166 103.107 227.364 103.239 227.612C103.371 227.86 103.469 228.133 103.533 228.432C103.599 228.734 103.652 229.036 103.69 229.341C103.739 229.739 103.775 230.061 103.799 230.309C103.826 230.559 103.872 230.741 103.937 230.855C104.002 230.972 104.115 231.031 104.277 231.031L104.311 231.032C104.732 231.034 105.059 230.921 105.293 230.692C105.527 230.466 105.646 230.121 105.648 229.658C105.651 229.178 105.548 228.801 105.339 228.527C105.13 228.253 104.907 228.06 104.669 227.948L105.015 226.996C105.412 227.168 105.72 227.397 105.94 227.682C106.163 227.971 106.318 228.284 106.404 228.622C106.493 228.964 106.536 229.299 106.535 229.629C106.534 229.839 106.507 230.08 106.454 230.353C106.404 230.628 106.302 230.893 106.147 231.148C105.992 231.406 105.76 231.619 105.449 231.788C105.138 231.957 104.723 232.04 104.203 232.037L99.8909 232.013L99.8964 231.008L100.783 231.012L100.783 230.961C100.641 230.892 100.49 230.778 100.329 230.618C100.168 230.458 100.031 230.245 99.9191 229.981C99.8069 229.716 99.7518 229.393 99.7539 229.012ZM100.656 229.171C100.654 229.568 100.731 229.904 100.885 230.178C101.04 230.454 101.241 230.663 101.487 230.803C101.733 230.946 101.993 231.019 102.266 231.02L103.186 231.025C103.135 230.983 103.089 230.889 103.047 230.743C103.008 230.601 102.973 230.436 102.943 230.249C102.916 230.064 102.891 229.883 102.869 229.707C102.851 229.534 102.834 229.393 102.821 229.285C102.788 229.023 102.734 228.779 102.658 228.551C102.586 228.326 102.475 228.144 102.325 228.004C102.178 227.866 101.976 227.797 101.721 227.796C101.371 227.794 101.106 227.922 100.926 228.179C100.748 228.44 100.659 228.77 100.656 229.171Z" fill="#AC0000"/>
<path d="M139.026 193.324L138.551 193.966C138.316 193.818 138.13 193.627 137.994 193.391C137.858 193.155 137.742 192.879 137.648 192.563C137.553 192.247 137.45 191.894 137.338 191.507C137.214 191.069 137.018 190.729 136.748 190.488C136.479 190.246 136.138 190.093 135.724 190.027C135.31 189.961 134.825 189.972 134.267 190.061L134.288 190.144C134.737 190.262 135.103 190.489 135.383 190.824C135.663 191.16 135.857 191.545 135.963 191.982C136.084 192.478 136.076 192.954 135.941 193.408C135.806 193.862 135.539 194.26 135.14 194.603C134.741 194.945 134.207 195.198 133.539 195.36C132.874 195.522 132.271 195.543 131.73 195.423C131.19 195.306 130.737 195.067 130.372 194.706C130.009 194.347 129.759 193.883 129.621 193.314C129.482 192.745 129.495 192.215 129.659 191.722C129.825 191.228 130.144 190.798 130.617 190.432C131.092 190.065 131.721 189.786 132.505 189.595L133.184 189.43C134.6 189.085 135.732 189.064 136.581 189.366C137.43 189.672 137.985 190.305 138.245 191.268C138.339 191.608 138.416 191.912 138.476 192.181C138.536 192.45 138.605 192.681 138.684 192.872C138.762 193.063 138.876 193.214 139.026 193.324ZM130.498 193.101C130.592 193.484 130.769 193.791 131.029 194.02C131.29 194.251 131.614 194.399 132.001 194.463C132.391 194.526 132.824 194.499 133.302 194.383C133.765 194.27 134.142 194.099 134.43 193.867C134.72 193.639 134.916 193.365 135.02 193.044C135.123 192.724 135.127 192.369 135.033 191.98C134.963 191.696 134.853 191.452 134.701 191.249C134.55 191.046 134.36 190.888 134.134 190.773C133.907 190.659 133.648 190.59 133.356 190.568C133.064 190.548 132.744 190.578 132.395 190.657C131.683 190.83 131.153 191.136 130.807 191.574C130.46 192.012 130.357 192.521 130.498 193.101ZM132.485 198.235L138.149 200.103L138.423 201.229L132.063 202.776L131.825 201.799L136.744 200.602L131.084 198.752L130.806 197.609L137.166 196.061L137.404 197.039L132.485 198.235ZM132.995 207.182C132.85 206.586 132.866 206.038 133.042 205.539C133.219 205.04 133.526 204.614 133.964 204.262C134.402 203.91 134.938 203.657 135.573 203.502C136.219 203.345 136.818 203.325 137.37 203.442C137.925 203.561 138.394 203.801 138.777 204.161C139.163 204.523 139.426 204.991 139.566 205.566C139.675 206.013 139.69 206.436 139.612 206.835C139.533 207.234 139.373 207.585 139.131 207.886C138.888 208.188 138.575 208.415 138.191 208.567L137.953 207.589C138.225 207.444 138.441 207.216 138.603 206.905C138.767 206.596 138.797 206.226 138.692 205.796C138.6 205.415 138.419 205.105 138.15 204.866C137.885 204.63 137.554 204.475 137.156 204.402C136.761 204.331 136.324 204.354 135.844 204.471C135.352 204.591 134.943 204.772 134.617 205.015C134.291 205.261 134.061 205.551 133.929 205.884C133.797 206.221 133.779 206.582 133.873 206.968C133.934 207.222 134.035 207.442 134.173 207.628C134.312 207.813 134.482 207.957 134.682 208.061C134.883 208.164 135.106 208.218 135.353 208.222L135.591 209.199C135.202 209.235 134.831 209.181 134.477 209.036C134.126 208.893 133.819 208.665 133.556 208.352C133.296 208.041 133.109 207.651 132.995 207.182ZM134.579 213.695C134.434 213.099 134.45 212.551 134.627 212.052C134.804 211.553 135.111 211.127 135.549 210.775C135.986 210.423 136.523 210.17 137.158 210.015C137.804 209.858 138.402 209.838 138.954 209.955C139.51 210.075 139.979 210.314 140.362 210.674C140.748 211.036 141.011 211.505 141.151 212.079C141.259 212.526 141.275 212.949 141.196 213.348C141.118 213.747 140.958 214.098 140.715 214.399C140.473 214.701 140.16 214.928 139.776 215.08L139.538 214.103C139.81 213.957 140.026 213.729 140.187 213.418C140.352 213.109 140.382 212.739 140.277 212.309C140.184 211.928 140.004 211.618 139.735 211.379C139.47 211.143 139.138 210.988 138.741 210.915C138.346 210.844 137.909 210.868 137.429 210.984C136.937 211.104 136.528 211.285 136.201 211.529C135.875 211.775 135.646 212.064 135.514 212.398C135.382 212.734 135.363 213.095 135.457 213.481C135.519 213.735 135.619 213.955 135.758 214.141C135.897 214.326 136.066 214.471 136.267 214.574C136.467 214.677 136.691 214.731 136.938 214.735L137.175 215.712C136.787 215.748 136.415 215.694 136.061 215.549C135.711 215.406 135.404 215.179 135.141 214.865C134.881 214.554 134.694 214.164 134.579 213.695ZM136.184 220.291C136.035 219.678 136.042 219.117 136.204 218.606C136.37 218.098 136.668 217.665 137.098 217.306C137.532 216.949 138.074 216.691 138.726 216.532C139.377 216.374 139.98 216.353 140.535 216.469C141.093 216.588 141.563 216.827 141.946 217.187C142.333 217.549 142.596 218.018 142.735 218.592C142.816 218.923 142.84 219.264 142.809 219.613C142.777 219.963 142.669 220.301 142.485 220.626C142.304 220.951 142.029 221.241 141.662 221.498C141.294 221.754 140.814 221.954 140.22 222.098L139.806 222.199L138.613 217.297L139.458 217.091L140.409 221C140.768 220.912 141.071 220.763 141.317 220.551C141.565 220.341 141.738 220.086 141.837 219.784C141.937 219.485 141.944 219.159 141.858 218.805C141.763 218.416 141.584 218.103 141.322 217.866C141.063 217.63 140.762 217.474 140.418 217.397C140.075 217.32 139.728 217.324 139.378 217.409L138.814 217.546C138.334 217.663 137.947 217.845 137.653 218.092C137.363 218.34 137.167 218.635 137.066 218.976C136.967 219.315 136.966 219.683 137.062 220.077C137.125 220.334 137.217 220.557 137.339 220.747C137.465 220.938 137.619 221.092 137.802 221.209C137.988 221.324 138.202 221.396 138.443 221.426L138.407 222.434C138.063 222.413 137.741 222.314 137.441 222.139C137.144 221.962 136.885 221.718 136.666 221.406C136.45 221.093 136.289 220.722 136.184 220.291ZM137.319 224.379L143.679 222.831L143.917 223.808L141.151 224.481L141.308 225.127L144.63 226.74L144.936 227.999L141.248 226.177L138.585 229.579L138.278 228.32L140.454 225.581L140.24 224.703L137.557 225.356L137.319 224.379ZM144.203 228.951L145.114 228.729L146.371 233.897L145.461 234.118L144.953 232.032L139.504 233.357L139.266 232.38L144.715 231.054L144.203 228.951ZM137.973 237.45L146.718 235.322L146.948 236.266L145.938 236.512L145.966 236.628C146.094 236.673 146.259 236.738 146.461 236.823C146.666 236.911 146.866 237.058 147.06 237.265C147.257 237.475 147.406 237.786 147.506 238.2C147.637 238.736 147.618 239.241 147.449 239.714C147.281 240.188 146.979 240.599 146.543 240.948C146.108 241.296 145.556 241.552 144.888 241.715C144.214 241.878 143.603 241.906 143.053 241.797C142.506 241.687 142.048 241.463 141.678 241.123C141.312 240.782 141.064 240.347 140.935 239.817C140.836 239.408 140.824 239.065 140.899 238.786C140.977 238.507 141.087 238.28 141.229 238.105C141.374 237.93 141.495 237.792 141.593 237.692L141.573 237.609L138.211 238.427L137.973 237.45ZM143.772 237.057C143.292 237.173 142.885 237.347 142.552 237.577C142.222 237.806 141.986 238.082 141.845 238.402C141.707 238.723 141.685 239.079 141.781 239.471C141.88 239.879 142.071 240.194 142.352 240.415C142.638 240.638 142.981 240.774 143.381 240.822C143.786 240.873 144.214 240.844 144.667 240.733C145.114 240.625 145.5 240.458 145.825 240.232C146.154 240.009 146.39 239.734 146.532 239.407C146.678 239.082 146.701 238.712 146.6 238.298C146.504 237.901 146.322 237.591 146.054 237.37C145.79 237.147 145.461 237.011 145.069 236.96C144.679 236.909 144.247 236.941 143.772 237.057ZM143.766 244.601L149.43 246.469L149.704 247.595L143.344 249.142L143.107 248.165L148.026 246.968L142.365 245.118L142.087 243.975L148.447 242.427L148.685 243.405L143.766 244.601ZM144.276 253.548C144.131 252.952 144.147 252.404 144.324 251.905C144.5 251.406 144.808 250.98 145.245 250.628C145.683 250.276 146.219 250.023 146.854 249.868C147.5 249.711 148.099 249.691 148.651 249.808C149.206 249.928 149.675 250.167 150.058 250.527C150.444 250.889 150.707 251.357 150.847 251.932C150.956 252.379 150.971 252.802 150.893 253.201C150.815 253.6 150.654 253.951 150.412 254.252C150.17 254.554 149.856 254.781 149.472 254.933L149.234 253.955C149.506 253.81 149.723 253.582 149.884 253.271C150.048 252.962 150.078 252.592 149.973 252.162C149.881 251.781 149.7 251.471 149.431 251.232C149.166 250.996 148.835 250.841 148.437 250.768C148.043 250.697 147.605 250.721 147.125 250.837C146.634 250.957 146.225 251.138 145.898 251.382C145.572 251.628 145.343 251.917 145.21 252.251C145.079 252.587 145.06 252.948 145.154 253.334C145.216 253.588 145.316 253.808 145.455 253.994C145.593 254.179 145.763 254.324 145.963 254.427C146.164 254.53 146.388 254.584 146.634 254.588L146.872 255.565C146.483 255.601 146.112 255.547 145.758 255.402C145.407 255.259 145.1 255.032 144.837 254.718C144.577 254.407 144.39 254.017 144.276 253.548ZM145.671 259.353C145.573 258.95 145.56 258.566 145.632 258.2C145.706 257.834 145.865 257.519 146.108 257.256C146.353 256.991 146.683 256.809 147.097 256.708C147.462 256.619 147.774 256.619 148.036 256.708C148.3 256.795 148.526 256.944 148.714 257.152C148.902 257.361 149.063 257.602 149.197 257.877C149.335 258.153 149.459 258.434 149.569 258.72C149.713 259.095 149.826 259.399 149.91 259.633C149.996 259.869 150.085 260.035 150.175 260.13C150.266 260.227 150.391 260.257 150.548 260.219L150.581 260.211C150.99 260.111 151.28 259.922 151.452 259.644C151.624 259.368 151.656 259.005 151.546 258.555C151.433 258.088 151.242 257.748 150.973 257.532C150.704 257.317 150.441 257.184 150.183 257.132L150.288 256.124C150.715 256.196 151.07 256.344 151.352 256.567C151.638 256.793 151.864 257.06 152.029 257.367C152.198 257.677 152.322 257.992 152.4 258.312C152.449 258.517 152.482 258.757 152.496 259.034C152.515 259.313 152.479 259.595 152.391 259.88C152.303 260.168 152.129 260.431 151.868 260.67C151.607 260.908 151.225 261.089 150.719 261.212L146.529 262.232L146.291 261.254L147.153 261.045L147.141 260.995C146.986 260.963 146.812 260.888 146.617 260.772C146.422 260.655 146.238 260.482 146.065 260.253C145.892 260.023 145.761 259.723 145.671 259.353ZM146.585 259.288C146.679 259.675 146.834 259.982 147.05 260.21C147.267 260.441 147.512 260.595 147.785 260.672C148.059 260.751 148.329 260.759 148.594 260.694L149.488 260.477C149.428 260.447 149.36 260.367 149.285 260.237C149.213 260.108 149.139 259.956 149.064 259.782C148.993 259.609 148.926 259.44 148.862 259.274C148.802 259.11 148.752 258.978 148.712 258.876C148.618 258.63 148.506 258.406 148.378 258.203C148.253 258.003 148.101 257.852 147.922 257.753C147.746 257.655 147.534 257.637 147.285 257.697C146.946 257.78 146.72 257.968 146.607 258.261C146.498 258.557 146.49 258.899 146.585 259.288Z" fill="#00A11D"/>
<line x1="171.512" y1="313.107" x2="114.512" y2="52.1067" stroke="#00A11D"/>
<path d="M170.631 198.839L176.28 199.232L176.604 200.13L169.487 199.687L169.209 198.917L174.425 194.084L174.743 194.966L170.631 198.839ZM174.633 194.661L168.475 196.88L168.134 195.934L174.292 193.715L174.633 194.661ZM170.221 201.723L176.378 199.504L176.719 200.45L170.561 202.669L170.221 201.723ZM171.988 207.029C171.774 206.436 171.72 205.877 171.827 205.352C171.938 204.829 172.188 204.366 172.577 203.963C172.97 203.562 173.482 203.248 174.112 203.02C174.743 202.793 175.34 202.708 175.904 202.764C176.472 202.822 176.965 203.01 177.385 203.327C177.807 203.646 178.119 204.083 178.319 204.639C178.435 204.96 178.496 205.296 178.501 205.647C178.507 205.998 178.436 206.345 178.288 206.688C178.142 207.031 177.901 207.349 177.563 207.643C177.225 207.937 176.769 208.187 176.194 208.394L175.793 208.539L174.082 203.792L174.9 203.497L176.264 207.282C176.612 207.157 176.897 206.975 177.119 206.738C177.343 206.504 177.487 206.231 177.554 205.92C177.621 205.612 177.593 205.287 177.469 204.945C177.334 204.568 177.123 204.276 176.836 204.068C176.554 203.862 176.237 203.739 175.888 203.699C175.538 203.659 175.194 203.7 174.854 203.822L174.309 204.019C173.844 204.186 173.479 204.408 173.213 204.685C172.951 204.964 172.788 205.278 172.724 205.627C172.662 205.975 172.7 206.341 172.838 206.723C172.927 206.972 173.043 207.183 173.185 207.359C173.33 207.536 173.5 207.673 173.695 207.769C173.892 207.863 174.112 207.913 174.355 207.916L174.427 208.922C174.083 208.938 173.752 208.874 173.435 208.732C173.12 208.588 172.837 208.373 172.586 208.086C172.337 207.799 172.138 207.446 171.988 207.029ZM171.553 210.95L174.198 209.997L174.383 210.51C174.56 210.588 174.74 210.645 174.925 210.681C175.11 210.717 175.319 210.731 175.552 210.723C175.788 210.716 176.066 210.683 176.385 210.622C176.707 210.56 177.09 210.471 177.534 210.353L180.046 209.683L181.456 213.596L176.181 215.497L176.522 216.443L173.876 217.397L173.535 216.45L175.299 215.815L173.657 211.261L171.893 211.896L171.553 210.95ZM174.771 211.584L175.84 214.551L180.234 212.967L179.482 210.883L177.869 211.283C177.201 211.448 176.608 211.568 176.092 211.643C175.575 211.717 175.135 211.698 174.771 211.584ZM177.828 218.46L183.66 219.711L184.053 220.801L177.895 223.02L177.554 222.074L182.317 220.358L176.491 219.123L176.092 218.017L182.25 215.798L182.591 216.744L177.828 218.46ZM179.028 226.617C178.888 226.227 178.834 225.846 178.866 225.475C178.901 225.103 179.025 224.773 179.238 224.485C179.454 224.196 179.763 223.979 180.163 223.834C180.516 223.707 180.827 223.674 181.097 223.734C181.368 223.793 181.609 223.916 181.819 224.103C182.028 224.29 182.214 224.513 182.377 224.772C182.543 225.032 182.696 225.298 182.837 225.571C183.02 225.928 183.165 226.218 183.273 226.442C183.384 226.667 183.49 226.822 183.59 226.907C183.691 226.995 183.818 227.011 183.97 226.956L184.002 226.944C184.398 226.802 184.666 226.583 184.807 226.287C184.949 225.995 184.942 225.63 184.785 225.195C184.622 224.743 184.395 224.425 184.105 224.239C183.815 224.054 183.539 223.95 183.277 223.926L183.274 222.913C183.706 222.938 184.074 223.047 184.379 223.239C184.687 223.433 184.94 223.674 185.138 223.962C185.339 224.252 185.495 224.552 185.607 224.862C185.678 225.06 185.736 225.296 185.78 225.57C185.828 225.845 185.824 226.129 185.766 226.422C185.709 226.717 185.564 226.998 185.331 227.263C185.097 227.528 184.736 227.749 184.247 227.925L180.19 229.387L179.849 228.441L180.683 228.141L180.665 228.093C180.508 228.077 180.327 228.021 180.121 227.926C179.914 227.832 179.713 227.679 179.517 227.469C179.32 227.259 179.157 226.975 179.028 226.617ZM179.93 226.455C180.065 226.829 180.252 227.118 180.492 227.322C180.732 227.528 180.992 227.655 181.272 227.702C181.552 227.752 181.821 227.73 182.078 227.638L182.944 227.326C182.881 227.303 182.805 227.231 182.716 227.109C182.63 226.989 182.541 226.846 182.448 226.68C182.359 226.516 182.274 226.355 182.193 226.197C182.115 226.041 182.051 225.914 182.001 225.817C181.881 225.583 181.746 225.372 181.597 225.184C181.451 224.998 181.284 224.865 181.095 224.785C180.91 224.707 180.697 224.711 180.456 224.798C180.128 224.916 179.923 225.127 179.842 225.431C179.765 225.737 179.794 226.078 179.93 226.455ZM185.809 233.97L184.927 234.288L183.702 230.888L184.584 230.57L185.809 233.97ZM187.311 229.841L181.153 232.06L180.812 231.114L186.97 228.895L187.311 229.841ZM188.715 233.738L182.557 235.957L182.216 235.011L188.374 232.792L188.715 233.738ZM183.688 239.549C183.548 239.159 183.494 238.778 183.526 238.407C183.561 238.035 183.685 237.705 183.899 237.417C184.114 237.128 184.423 236.911 184.824 236.766C185.176 236.639 185.487 236.606 185.757 236.666C186.029 236.725 186.269 236.848 186.479 237.035C186.688 237.222 186.874 237.445 187.037 237.704C187.203 237.964 187.356 238.23 187.497 238.503C187.68 238.86 187.825 239.15 187.933 239.374C188.044 239.599 188.15 239.755 188.25 239.839C188.351 239.927 188.478 239.943 188.63 239.888L188.662 239.877C189.058 239.734 189.326 239.515 189.467 239.22C189.609 238.927 189.602 238.562 189.445 238.127C189.282 237.675 189.056 237.357 188.765 237.171C188.475 236.986 188.199 236.882 187.937 236.858L187.934 235.845C188.366 235.87 188.734 235.979 189.039 236.171C189.348 236.365 189.601 236.606 189.798 236.894C189.999 237.184 190.156 237.484 190.267 237.794C190.339 237.992 190.396 238.228 190.441 238.502C190.489 238.777 190.484 239.062 190.426 239.354C190.37 239.649 190.224 239.93 189.991 240.195C189.757 240.46 189.396 240.681 188.907 240.857L184.85 242.319L184.509 241.373L185.343 241.073L185.325 241.025C185.169 241.009 184.987 240.953 184.781 240.858C184.575 240.764 184.373 240.611 184.177 240.401C183.98 240.191 183.818 239.907 183.688 239.549ZM184.59 239.387C184.725 239.761 184.912 240.05 185.152 240.254C185.392 240.46 185.652 240.587 185.932 240.634C186.213 240.684 186.481 240.662 186.738 240.57L187.604 240.258C187.541 240.235 187.465 240.163 187.376 240.041C187.291 239.921 187.201 239.778 187.108 239.612C187.019 239.448 186.934 239.287 186.853 239.129C186.775 238.973 186.712 238.846 186.662 238.749C186.541 238.515 186.406 238.304 186.257 238.116C186.111 237.93 185.944 237.797 185.755 237.717C185.57 237.639 185.357 237.643 185.117 237.73C184.788 237.848 184.583 238.06 184.502 238.363C184.425 238.669 184.455 239.01 184.59 239.387Z" fill="#0900FF"/>
</svg>
