<svg width="278" height="139" viewBox="0 0 278 139" fill="none" xmlns="http://www.w3.org/2000/svg">
<g clip-path="url(#clip0_178_11)">
<rect width="278" height="139" fill="white"/>
<line x1="74" y1="138" x2="274" y2="138" stroke="black" stroke-width="2"/>
<line x1="75.1241" y1="138.482" x2="-0.875946" y2="0.482411" stroke="black" stroke-width="2"/>
<mask id="path-3-inside-1_178_11" fill="white">
<path d="M104 138.5C104 133.285 102.663 128.157 100.116 123.605C97.569 119.054 93.8976 115.232 89.4526 112.505C85.0076 109.777 79.9373 108.234 74.7263 108.025C69.5152 107.815 64.3374 108.945 59.6876 111.307L73.5 138.5H104Z"/>
</mask>
<path d="M104 138.5C104 133.285 102.663 128.157 100.116 123.605C97.569 119.054 93.8976 115.232 89.4526 112.505C85.0076 109.777 79.9373 108.234 74.7263 108.025C69.5152 107.815 64.3374 108.945 59.6876 111.307L73.5 138.5H104Z" stroke="black" stroke-width="2" mask="url(#path-3-inside-1_178_11)"/>
<path d="M123.398 123.227L112.42 128.818V126.636L120.841 122.58L120.773 122.716V122.375L120.841 122.511L112.42 118.455V116.273L123.398 121.864V123.227ZM133.184 113.307C133.9 113.312 134.616 113.449 135.332 113.716C136.048 113.983 136.701 114.426 137.292 115.045C137.883 115.659 138.357 116.497 138.715 117.56C139.073 118.622 139.252 119.955 139.252 121.557C139.252 123.108 139.104 124.486 138.809 125.69C138.519 126.889 138.099 127.901 137.548 128.724C137.002 129.548 136.337 130.173 135.553 130.599C134.775 131.026 133.894 131.239 132.911 131.239C131.934 131.239 131.062 131.045 130.295 130.659C129.533 130.267 128.908 129.724 128.42 129.031C127.937 128.332 127.627 127.523 127.491 126.602H129.57C129.758 127.403 130.13 128.065 130.687 128.588C131.249 129.105 131.991 129.364 132.911 129.364C134.258 129.364 135.32 128.776 136.099 127.599C136.883 126.423 137.275 124.761 137.275 122.614H137.138C136.82 123.091 136.442 123.503 136.005 123.849C135.567 124.196 135.082 124.463 134.548 124.651C134.013 124.838 133.445 124.932 132.843 124.932C131.843 124.932 130.925 124.685 130.09 124.19C129.261 123.69 128.596 123.006 128.096 122.136C127.602 121.261 127.354 120.261 127.354 119.136C127.354 118.068 127.593 117.091 128.07 116.205C128.553 115.312 129.229 114.602 130.099 114.074C130.974 113.545 132.002 113.29 133.184 113.307ZM133.184 115.182C132.468 115.182 131.823 115.361 131.249 115.719C130.681 116.071 130.229 116.548 129.894 117.151C129.565 117.747 129.4 118.409 129.4 119.136C129.4 119.864 129.559 120.526 129.877 121.122C130.201 121.713 130.641 122.185 131.198 122.537C131.761 122.884 132.4 123.057 133.116 123.057C133.656 123.057 134.158 122.952 134.624 122.741C135.09 122.526 135.496 122.233 135.843 121.864C136.195 121.489 136.471 121.065 136.67 120.594C136.869 120.116 136.968 119.619 136.968 119.102C136.968 118.42 136.803 117.781 136.474 117.185C136.15 116.588 135.701 116.105 135.127 115.736C134.559 115.366 133.911 115.182 133.184 115.182ZM148.297 131.239C147.013 131.239 145.919 130.889 145.016 130.19C144.112 129.486 143.422 128.466 142.945 127.131C142.467 125.79 142.229 124.17 142.229 122.273C142.229 120.386 142.467 118.776 142.945 117.44C143.428 116.099 144.121 115.077 145.024 114.372C145.933 113.662 147.024 113.307 148.297 113.307C149.57 113.307 150.658 113.662 151.561 114.372C152.47 115.077 153.163 116.099 153.641 117.44C154.124 118.776 154.365 120.386 154.365 122.273C154.365 124.17 154.126 125.79 153.649 127.131C153.172 128.466 152.482 129.486 151.578 130.19C150.675 130.889 149.581 131.239 148.297 131.239ZM148.297 129.364C149.57 129.364 150.558 128.75 151.263 127.523C151.967 126.295 152.32 124.545 152.32 122.273C152.32 120.761 152.158 119.474 151.834 118.412C151.516 117.349 151.055 116.54 150.453 115.983C149.857 115.426 149.138 115.148 148.297 115.148C147.036 115.148 146.05 115.77 145.339 117.014C144.629 118.253 144.274 120.006 144.274 122.273C144.274 123.784 144.433 125.068 144.751 126.125C145.07 127.182 145.527 127.986 146.124 128.537C146.726 129.088 147.45 129.364 148.297 129.364ZM161.251 121.25C160.53 121.25 159.871 121.074 159.274 120.722C158.683 120.369 158.212 119.898 157.859 119.307C157.507 118.71 157.331 118.051 157.331 117.33C157.331 116.608 157.507 115.952 157.859 115.361C158.212 114.764 158.683 114.29 159.274 113.938C159.871 113.585 160.53 113.409 161.251 113.409C161.973 113.409 162.629 113.585 163.22 113.938C163.817 114.29 164.291 114.764 164.643 115.361C164.996 115.952 165.172 116.608 165.172 117.33C165.172 118.051 164.996 118.71 164.643 119.307C164.291 119.898 163.817 120.369 163.22 120.722C162.629 121.074 161.973 121.25 161.251 121.25ZM161.251 119.545C161.661 119.545 162.033 119.446 162.368 119.247C162.703 119.048 162.97 118.781 163.169 118.446C163.368 118.111 163.467 117.739 163.467 117.33C163.467 116.92 163.368 116.548 163.169 116.213C162.97 115.878 162.703 115.611 162.368 115.412C162.033 115.213 161.661 115.114 161.251 115.114C160.842 115.114 160.47 115.213 160.135 115.412C159.8 115.611 159.533 115.878 159.334 116.213C159.135 116.548 159.036 116.92 159.036 117.33C159.036 117.739 159.135 118.111 159.334 118.446C159.533 118.781 159.8 119.048 160.135 119.247C160.47 119.446 160.842 119.545 161.251 119.545Z" fill="black"/>
</g>
<defs>
<clipPath id="clip0_178_11">
<rect width="278" height="139" fill="white"/>
</clipPath>
</defs>
</svg>
