<svg width="320" height="280" viewBox="0 0 320 280" fill="none" xmlns="http://www.w3.org/2000/svg">
<g clip-path="url(#clip0_70_2)">
<rect width="320" height="280" fill="white"/>
<line x1="21.3958" y1="88.2032" x2="112.396" y2="19.2032" stroke="black" stroke-width="2"/>
<line x1="52.0329" y1="247.746" x2="112.033" y2="19.7455" stroke="black" stroke-width="2"/>
<line x1="52.3376" y1="247.251" x2="294.338" y2="33.2509" stroke="black" stroke-width="2"/>
<line x1="267.01" y1="224.86" x2="294.01" y2="33.86" stroke="black" stroke-width="2"/>
<path d="M3.82955 97H1.61364L8.02273 79.5455H10.2045L16.6136 97H14.3977L9.18182 82.3068H9.04545L3.82955 97ZM4.64773 90.1818H13.5795V92.0568H4.64773V90.1818Z" fill="black"/>
<path d="M123.114 20V2.54545H129.216C130.432 2.54545 131.435 2.75568 132.224 3.17614C133.014 3.59091 133.602 4.15057 133.989 4.85511C134.375 5.55398 134.568 6.32954 134.568 7.18182C134.568 7.93182 134.435 8.55114 134.168 9.03977C133.906 9.52841 133.56 9.91477 133.128 10.1989C132.702 10.483 132.239 10.6932 131.739 10.8295V11C132.273 11.0341 132.81 11.2216 133.349 11.5625C133.889 11.9034 134.341 12.392 134.705 13.0284C135.068 13.6648 135.25 14.4432 135.25 15.3636C135.25 16.2386 135.051 17.0256 134.653 17.7244C134.256 18.4233 133.628 18.9773 132.77 19.3864C131.912 19.7955 130.795 20 129.42 20H123.114ZM125.227 18.125H129.42C130.801 18.125 131.781 17.858 132.361 17.3239C132.946 16.7841 133.239 16.1307 133.239 15.3636C133.239 14.7727 133.088 14.2273 132.787 13.7273C132.486 13.2216 132.057 12.8182 131.5 12.517C130.943 12.2102 130.284 12.0568 129.523 12.0568H125.227V18.125ZM125.227 10.2159H129.148C129.784 10.2159 130.358 10.0909 130.869 9.84091C131.386 9.59091 131.795 9.23864 132.097 8.78409C132.403 8.32955 132.557 7.79545 132.557 7.18182C132.557 6.41477 132.29 5.7642 131.756 5.23011C131.222 4.69034 130.375 4.42045 129.216 4.42045H125.227V10.2159Z" fill="black"/>
<path d="M53.1591 259H51.0455C50.9205 258.392 50.7017 257.858 50.3892 257.398C50.0824 256.938 49.7074 256.551 49.2642 256.239C48.8267 255.92 48.3409 255.682 47.8068 255.523C47.2727 255.364 46.7159 255.284 46.1364 255.284C45.0795 255.284 44.1222 255.551 43.2642 256.085C42.4119 256.619 41.733 257.406 41.2273 258.446C40.7273 259.486 40.4773 260.761 40.4773 262.273C40.4773 263.784 40.7273 265.06 41.2273 266.099C41.733 267.139 42.4119 267.926 43.2642 268.46C44.1222 268.994 45.0795 269.261 46.1364 269.261C46.7159 269.261 47.2727 269.182 47.8068 269.023C48.3409 268.864 48.8267 268.628 49.2642 268.315C49.7074 267.997 50.0824 267.608 50.3892 267.148C50.7017 266.682 50.9205 266.148 51.0455 265.545H53.1591C53 266.437 52.7102 267.236 52.2898 267.94C51.8693 268.645 51.3466 269.244 50.7216 269.739C50.0966 270.227 49.3949 270.599 48.6165 270.855C47.8438 271.111 47.017 271.239 46.1364 271.239C44.6477 271.239 43.3239 270.875 42.1648 270.148C41.0057 269.42 40.0938 268.386 39.429 267.045C38.7642 265.705 38.4318 264.114 38.4318 262.273C38.4318 260.432 38.7642 258.841 39.429 257.5C40.0938 256.159 41.0057 255.125 42.1648 254.398C43.3239 253.67 44.6477 253.307 46.1364 253.307C47.017 253.307 47.8438 253.435 48.6165 253.69C49.3949 253.946 50.0966 254.321 50.7216 254.815C51.3466 255.304 51.8693 255.901 52.2898 256.605C52.7102 257.304 53 258.102 53.1591 259Z" fill="black"/>
<path d="M302.5 26H297.114V8.54545H302.739C304.432 8.54545 305.881 8.89489 307.085 9.59375C308.29 10.2869 309.213 11.2841 309.855 12.5852C310.497 13.8807 310.818 15.4318 310.818 17.2386C310.818 19.0568 310.494 20.6222 309.847 21.9347C309.199 23.2415 308.256 24.2472 307.017 24.9517C305.778 25.6506 304.273 26 302.5 26ZM299.227 24.125H302.364C303.807 24.125 305.003 23.8466 305.952 23.2898C306.901 22.733 307.608 21.9403 308.074 20.9119C308.54 19.8835 308.773 18.6591 308.773 17.2386C308.773 15.8295 308.543 14.6165 308.082 13.5994C307.622 12.5767 306.935 11.7926 306.02 11.2472C305.105 10.696 303.966 10.4205 302.602 10.4205H299.227V24.125Z" fill="black"/>
<path d="M261.114 248V230.545H271.648V232.42H263.227V238.318H271.102V240.193H263.227V246.125H271.784V248H261.114Z" fill="black"/>
</g>
<defs>
<clipPath id="clip0_70_2">
<rect width="320" height="280" fill="white"/>
</clipPath>
</defs>
</svg>
