<svg width="200" height="200" viewBox="0 0 200 200" fill="none" xmlns="http://www.w3.org/2000/svg">
<g clip-path="url(#clip0_194_2)">
<rect width="200" height="200" fill="white"/>
<rect x="88.5" y="79.5" width="15" height="15" stroke="black"/>
<line x1="88" y1="200" x2="88" y2="-54" stroke="black" stroke-width="2"/>
<line y1="95" x2="200" y2="95" stroke="black" stroke-width="2"/>
<line x1="87.5" y1="94" x2="87.5" y2="33" stroke="#008236" stroke-width="3"/>
<path d="M75.3059 85.7649L82.5786 85.7649L82.5786 86.6456L76.0871 86.6456L76.0871 90.3103L82.5786 90.3103L82.5786 91.191L75.3059 91.191L75.3059 85.7649ZM82.6922 81.8151C82.6922 82.3407 82.5762 82.7941 82.3442 83.1752C82.1099 83.554 81.7832 83.8464 81.3641 84.0523C80.9427 84.2559 80.4527 84.3577 79.894 84.3577C79.3352 84.3577 78.8428 84.2559 78.4167 84.0523C77.9882 83.8464 77.6544 83.5599 77.4153 83.193C77.1738 82.8237 77.053 82.3928 77.053 81.9004C77.053 81.6163 77.1004 81.3357 77.1951 81.0587C77.2898 80.7818 77.4437 80.5296 77.6567 80.3023C77.8674 80.0751 78.1468 79.894 78.4948 79.759C78.8428 79.6241 79.2713 79.5566 79.7803 79.5566L80.1354 79.5566L80.1354 83.7612L79.411 83.7612L79.411 80.4089C79.1032 80.4089 78.8286 80.4704 78.5871 80.5935C78.3457 80.7143 78.1551 80.8871 78.0154 81.112C77.8757 81.3345 77.8059 81.5973 77.8059 81.9004C77.8059 82.2342 77.8887 82.523 78.0545 82.7668C78.2178 83.0083 78.4309 83.1942 78.6937 83.3244C78.9565 83.4546 79.2382 83.5197 79.5388 83.5197L80.0218 83.5197C80.4337 83.5197 80.7829 83.4487 81.0694 83.3066C81.3535 83.1622 81.5701 82.9621 81.7192 82.7065C81.866 82.4508 81.9394 82.1537 81.9394 81.8151C81.9394 81.595 81.9086 81.3961 81.8471 81.2185C81.7832 81.0386 81.6885 80.8836 81.563 80.7533C81.4351 80.6231 81.2765 80.5225 81.0871 80.4515L81.3144 79.6418C81.589 79.7271 81.8305 79.8703 82.0388 80.0715C82.2448 80.2728 82.4058 80.5213 82.5218 80.8173C82.6354 81.1132 82.6922 81.4458 82.6922 81.8151ZM84.6241 78.2818L77.1241 78.2818L77.1241 77.4721L77.9905 77.4721L77.9905 77.3727C77.8958 77.3111 77.7751 77.2259 77.6283 77.117C77.4792 77.0057 77.3466 76.8471 77.2306 76.6411C77.1122 76.4328 77.053 76.1511 77.053 75.796C77.053 75.3367 77.1679 74.9318 77.3975 74.5815C77.6271 74.2311 77.9527 73.9577 78.3741 73.7612C78.7955 73.5647 79.2926 73.4664 79.8655 73.4664C80.4432 73.4664 80.9439 73.5647 81.3677 73.7612C81.7891 73.9577 82.1158 74.2299 82.3478 74.5779C82.5774 74.9259 82.6922 75.3272 82.6922 75.7818C82.6922 76.1321 82.6342 76.4127 82.5182 76.6234C82.3999 76.8341 82.2661 76.9962 82.117 77.1099C81.9654 77.2235 81.84 77.3111 81.7405 77.3727L81.7405 77.4437L84.6241 77.4437L84.6241 78.2818ZM79.8513 77.4579C80.2633 77.4579 80.6267 77.3975 80.9415 77.2768C81.254 77.156 81.4991 76.9797 81.6766 76.7477C81.8518 76.5157 81.9394 76.2316 81.9394 75.8954C81.9394 75.545 81.8471 75.2526 81.6624 75.0183C81.4754 74.7815 81.2244 74.604 80.9096 74.4856C80.5923 74.3648 80.2396 74.3045 79.8513 74.3045C79.4678 74.3045 79.1222 74.3637 78.8144 74.482C78.5043 74.598 78.2592 74.7744 78.0793 75.0112C77.897 75.2455 77.8059 75.5403 77.8059 75.8954C77.8059 76.2363 77.8923 76.5228 78.0651 76.7548C78.2356 76.9868 78.4747 77.162 78.7824 77.2803C79.0878 77.3987 79.4441 77.4579 79.8513 77.4579ZM82.5786 72.188L77.1241 72.188L77.1241 67.8982L82.5786 67.8982L82.5786 68.7363L77.9053 68.7363L77.9053 71.3499L82.5786 71.3499L82.5786 72.188ZM82.6922 64.0808C82.6922 64.6063 82.5762 65.0597 82.3442 65.4408C82.1099 65.8196 81.7832 66.112 81.3641 66.318C80.9427 66.5216 80.4527 66.6234 79.894 66.6234C79.3352 66.6234 78.8428 66.5216 78.4167 66.318C77.9882 66.112 77.6544 65.8255 77.4153 65.4586C77.1738 65.0893 77.053 64.6584 77.053 64.166C77.053 63.8819 77.1004 63.6014 77.1951 63.3244C77.2898 63.0474 77.4437 62.7952 77.6567 62.568C77.8674 62.3407 78.1468 62.1596 78.4948 62.0246C78.8428 61.8897 79.2713 61.8222 79.7803 61.8222L80.1354 61.8222L80.1354 66.0268L79.411 66.0268L79.411 62.6745C79.1032 62.6745 78.8286 62.7361 78.5871 62.8592C78.3457 62.9799 78.1551 63.1527 78.0154 63.3776C77.8757 63.6002 77.8059 63.863 77.8059 64.166C77.8059 64.4998 77.8887 64.7886 78.0545 65.0325C78.2178 65.2739 78.4309 65.4598 78.6937 65.59C78.9565 65.7202 79.2382 65.7853 79.5388 65.7853L80.0218 65.7853C80.4337 65.7853 80.7829 65.7143 81.0694 65.5722C81.3535 65.4278 81.5701 65.2278 81.7192 64.9721C81.866 64.7164 81.9394 64.4193 81.9394 64.0808C81.9394 63.8606 81.9086 63.6617 81.8471 63.4842C81.7832 63.3042 81.6885 63.1492 81.563 63.019C81.4351 62.8888 81.2765 62.7881 81.0871 62.7171L81.3144 61.9075C81.589 61.9927 81.8305 62.1359 82.0388 62.3371C82.2448 62.5384 82.4058 62.787 82.5218 63.0829C82.6354 63.3788 82.6922 63.7114 82.6922 64.0808ZM79.4678 56.8968L80.2491 56.8968L80.2491 59.9082L79.4678 59.9082L79.4678 56.8968ZM77.1241 59.7093L82.5786 59.7093L82.5786 60.5474L77.1241 60.5474L77.1241 59.7093ZM77.1241 56.2576L82.5786 56.2576L82.5786 57.0957L77.1241 57.0957L77.1241 56.2576ZM84.1411 55.3095L81.7974 55.3095L81.7974 54.8549C81.6814 54.7436 81.5559 54.6478 81.4209 54.5673C81.286 54.4868 81.1262 54.4169 80.9415 54.3577C80.7545 54.2962 80.5272 54.2441 80.2597 54.2015C79.9898 54.1589 79.6643 54.121 79.2832 54.0879L77.1241 53.9032L77.1241 50.4373L81.7974 50.4373L81.7974 49.5992L84.1411 49.5992L84.1411 50.4373L82.5786 50.4373L82.5786 54.4714L84.1411 54.4714L84.1411 55.3095ZM81.7974 53.9032L81.7974 51.2754L77.9053 51.2754L77.9053 53.122L79.2832 53.264C79.8537 53.3232 80.352 53.3966 80.7782 53.4842C81.2043 53.5718 81.544 53.7114 81.7974 53.9032ZM81.3428 47.6488L77.1241 45.0209L77.1241 44.055L82.5786 44.055L82.5786 44.8931L78.3599 44.8931L82.5786 47.5067L82.5786 48.4868L77.1241 48.4868L77.1241 47.6488L81.3428 47.6488ZM82.5786 42.52L77.1241 42.52L77.1241 41.682L79.4962 41.682L79.4962 41.128L77.1241 39.1678L77.1241 38.0882L79.7519 40.2899L82.5786 38.0598L82.5786 39.1394L80.2775 40.9291L80.2775 41.682L82.5786 41.682L82.5786 42.52ZM84.6241 36.6092C84.6241 36.7512 84.6122 36.8779 84.5886 36.9891C84.5672 37.1004 84.5459 37.1773 84.5246 37.22L83.786 37.0069C83.8381 36.8033 83.857 36.6234 83.8428 36.4671C83.8286 36.3109 83.7588 36.1724 83.6333 36.0516C83.5102 35.9285 83.3101 35.8161 83.0332 35.7143L82.607 35.558L77.1241 37.5751L77.1241 36.666L81.4707 35.1603L81.4707 35.1035L77.1241 33.5978L77.1241 32.6887L83.3741 35.0041C83.6558 35.1082 83.889 35.2372 84.0736 35.3911C84.2607 35.545 84.3992 35.7237 84.4891 35.9273C84.5791 36.1286 84.6241 36.3559 84.6241 36.6092ZM82.5786 32.5245L81.7974 32.5245L81.7974 32.3256C81.7974 32.1623 81.7654 32.0261 81.7015 31.9172C81.6352 31.8083 81.5204 31.7207 81.357 31.6544C81.1913 31.5858 80.9617 31.5337 80.6681 31.4982C80.3722 31.4603 79.9958 31.4331 79.5388 31.4165L77.1241 31.3171L77.1241 27.6807L82.5786 27.6807L82.5786 28.5188L77.9053 28.5188L77.9053 30.5216L79.8513 30.6069C80.2988 30.6258 80.693 30.666 81.0339 30.7276C81.3724 30.7868 81.6565 30.8779 81.8861 31.001C82.1158 31.1218 82.2886 31.2828 82.4046 31.484C82.5206 31.6852 82.5786 31.9374 82.5786 32.2404L82.5786 32.5245ZM82.5786 22.8618L77.8911 22.8618L77.8911 24.3107C77.8911 24.6374 77.9669 24.8943 78.1184 25.0813C78.2699 25.2683 78.4782 25.3618 78.7434 25.3618C79.0038 25.3618 79.2086 25.2778 79.3577 25.1097C79.5069 24.9392 79.5815 24.7061 79.5815 24.4101L79.5815 22.6488L80.3627 22.6488L80.3627 24.4101C80.3627 24.7794 80.2976 25.0979 80.1674 25.3654C80.0372 25.6329 79.8513 25.8389 79.6099 25.9833C79.366 26.1277 79.0772 26.1999 78.7434 26.1999C78.4072 26.1999 78.1184 26.1241 77.8769 25.9726C77.6354 25.8211 77.4496 25.6045 77.3194 25.3228C77.1892 25.0387 77.1241 24.7013 77.1241 24.3107L77.1241 22.0664L82.5786 22.0664L82.5786 22.8618ZM82.5786 26.4982L79.8655 24.9499L79.8655 24.0408L82.5786 25.5891L82.5786 26.4982ZM84.6241 20.5278L77.1241 20.5278L77.1241 19.7182L77.9905 19.7182L77.9905 19.6188C77.8958 19.5572 77.7751 19.472 77.6283 19.3631C77.4792 19.2518 77.3466 19.0932 77.2306 18.8872C77.1122 18.6789 77.053 18.3972 77.053 18.0421C77.053 17.5828 77.1679 17.1779 77.3975 16.8276C77.6271 16.4772 77.9527 16.2037 78.3741 16.0072C78.7955 15.8108 79.2926 15.7125 79.8655 15.7125C80.4432 15.7125 80.9439 15.8108 81.3677 16.0072C81.7891 16.2037 82.1158 16.476 82.3478 16.824C82.5774 17.172 82.6922 17.5733 82.6922 18.0278C82.6922 18.3782 82.6342 18.6588 82.5182 18.8695C82.3999 19.0802 82.2661 19.2423 82.117 19.356C81.9654 19.4696 81.84 19.5572 81.7405 19.6188L81.7405 19.6898L84.6241 19.6898L84.6241 20.5278ZM79.8513 19.704C80.2633 19.704 80.6267 19.6436 80.9415 19.5229C81.254 19.4021 81.4991 19.2258 81.6766 18.9938C81.8518 18.7617 81.9394 18.4777 81.9394 18.1415C81.9394 17.7911 81.8471 17.4987 81.6624 17.2644C81.4754 17.0276 81.2244 16.8501 80.9096 16.7317C80.5923 16.6109 80.2396 16.5506 79.8513 16.5506C79.4678 16.5506 79.1222 16.6098 78.8144 16.7281C78.5043 16.8441 78.2592 17.0205 78.0793 17.2572C77.897 17.4916 77.8059 17.7864 77.8059 18.1415C77.8059 18.4824 77.8923 18.7688 78.0651 19.0009C78.2356 19.2329 78.4747 19.4081 78.7824 19.5264C79.0878 19.6448 79.4441 19.704 79.8513 19.704Z" fill="#008236"/>
<path d="M113.824 123.909C113.824 124.983 113.63 125.911 113.242 126.693C112.854 127.475 112.322 128.079 111.646 128.503C110.97 128.927 110.198 129.139 109.33 129.139C108.461 129.139 107.689 128.927 107.013 128.503C106.337 128.079 105.805 127.475 105.417 126.693C105.029 125.911 104.835 124.983 104.835 123.909C104.835 122.835 105.029 121.907 105.417 121.125C105.805 120.343 106.337 119.74 107.013 119.315C107.689 118.891 108.461 118.679 109.33 118.679C110.198 118.679 110.97 118.891 111.646 119.315C112.322 119.74 112.854 120.343 113.242 121.125C113.63 121.907 113.824 122.835 113.824 123.909ZM112.631 123.909C112.631 123.027 112.483 122.283 112.188 121.677C111.897 121.07 111.5 120.611 111 120.3C110.503 119.988 109.946 119.832 109.33 119.832C108.713 119.832 108.155 119.988 107.654 120.3C107.157 120.611 106.761 121.07 106.466 121.677C106.174 122.283 106.028 123.027 106.028 123.909C106.028 124.791 106.174 125.535 106.466 126.141C106.761 126.748 107.157 127.207 107.654 127.518C108.155 127.83 108.713 127.986 109.33 127.986C109.946 127.986 110.503 127.83 111 127.518C111.5 127.207 111.897 126.748 112.188 126.141C112.483 125.535 112.631 124.791 112.631 123.909ZM118.84 129.159C118.124 129.159 117.508 128.99 116.991 128.652C116.474 128.314 116.076 127.848 115.798 127.255C115.519 126.662 115.38 125.984 115.38 125.222C115.38 124.446 115.522 123.762 115.808 123.168C116.096 122.572 116.497 122.106 117.011 121.771C117.528 121.433 118.131 121.264 118.82 121.264C119.357 121.264 119.841 121.364 120.272 121.562C120.703 121.761 121.056 122.04 121.331 122.398C121.606 122.756 121.777 123.173 121.843 123.651H120.67C120.58 123.303 120.381 122.994 120.073 122.726C119.768 122.454 119.357 122.318 118.84 122.318C118.383 122.318 117.982 122.437 117.637 122.676C117.296 122.911 117.029 123.245 116.837 123.675C116.648 124.103 116.553 124.605 116.553 125.182C116.553 125.772 116.646 126.286 116.832 126.723C117.021 127.161 117.286 127.5 117.627 127.742C117.972 127.984 118.376 128.105 118.84 128.105C119.145 128.105 119.422 128.052 119.67 127.946C119.919 127.84 120.129 127.688 120.302 127.489C120.474 127.29 120.597 127.051 120.67 126.773H121.843C121.777 127.223 121.613 127.629 121.351 127.991C121.092 128.349 120.749 128.634 120.322 128.846C119.897 129.055 119.404 129.159 118.84 129.159ZM128.669 124.645V125.739H124.453V124.645H128.669ZM124.732 121.364V129H123.558V121.364H124.732ZM129.564 121.364V129H128.391V121.364H129.564ZM134.809 129.159C134.12 129.159 133.515 128.995 132.994 128.667C132.477 128.339 132.073 127.88 131.781 127.29C131.493 126.7 131.349 126.01 131.349 125.222C131.349 124.426 131.493 123.732 131.781 123.138C132.073 122.545 132.477 122.085 132.994 121.756C133.515 121.428 134.12 121.264 134.809 121.264C135.498 121.264 136.102 121.428 136.619 121.756C137.139 122.085 137.543 122.545 137.832 123.138C138.123 123.732 138.269 124.426 138.269 125.222C138.269 126.01 138.123 126.7 137.832 127.29C137.543 127.88 137.139 128.339 136.619 128.667C136.102 128.995 135.498 129.159 134.809 129.159ZM134.809 128.105C135.333 128.105 135.763 127.971 136.102 127.702C136.44 127.434 136.69 127.081 136.852 126.643C137.015 126.206 137.096 125.732 137.096 125.222C137.096 124.711 137.015 124.236 136.852 123.795C136.69 123.354 136.44 122.998 136.102 122.726C135.763 122.454 135.333 122.318 134.809 122.318C134.285 122.318 133.854 122.454 133.516 122.726C133.178 122.998 132.928 123.354 132.766 123.795C132.603 124.236 132.522 124.711 132.522 125.222C132.522 125.732 132.603 126.206 132.766 126.643C132.928 127.081 133.178 127.434 133.516 127.702C133.854 127.971 134.285 128.105 134.809 128.105ZM140.06 129V121.364H143.182C144.004 121.364 144.657 121.549 145.141 121.92C145.625 122.292 145.867 122.782 145.867 123.392C145.867 123.856 145.729 124.216 145.454 124.471C145.179 124.723 144.826 124.893 144.395 124.983C144.677 125.023 144.951 125.122 145.216 125.281C145.484 125.44 145.706 125.659 145.882 125.938C146.058 126.213 146.145 126.551 146.145 126.952C146.145 127.343 146.046 127.692 145.847 128.001C145.648 128.309 145.363 128.553 144.992 128.732C144.621 128.911 144.177 129 143.66 129H140.06ZM141.174 127.926H143.66C144.064 127.926 144.381 127.83 144.609 127.638C144.838 127.446 144.952 127.184 144.952 126.852C144.952 126.458 144.838 126.148 144.609 125.923C144.381 125.694 144.064 125.58 143.66 125.58H141.174V127.926ZM141.174 124.565H143.182C143.497 124.565 143.767 124.522 143.993 124.436C144.218 124.347 144.39 124.221 144.51 124.058C144.632 123.893 144.694 123.697 144.694 123.472C144.694 123.15 144.559 122.898 144.291 122.716C144.023 122.53 143.653 122.438 143.182 122.438H141.174V124.565ZM150.169 129.179C149.685 129.179 149.246 129.088 148.851 128.906C148.457 128.72 148.144 128.453 147.912 128.105C147.68 127.754 147.564 127.33 147.564 126.832C147.564 126.395 147.65 126.04 147.822 125.768C147.994 125.493 148.225 125.278 148.513 125.122C148.801 124.966 149.12 124.85 149.468 124.774C149.819 124.695 150.172 124.632 150.527 124.585C150.991 124.526 151.367 124.481 151.655 124.451C151.947 124.418 152.159 124.363 152.292 124.287C152.427 124.211 152.495 124.078 152.495 123.889V123.849C152.495 123.359 152.361 122.978 152.093 122.706C151.828 122.434 151.425 122.298 150.885 122.298C150.324 122.298 149.885 122.421 149.567 122.666C149.249 122.911 149.025 123.173 148.896 123.452L147.782 123.054C147.981 122.59 148.246 122.229 148.578 121.97C148.913 121.708 149.277 121.526 149.672 121.423C150.069 121.317 150.46 121.264 150.845 121.264C151.09 121.264 151.372 121.294 151.69 121.354C152.011 121.41 152.321 121.528 152.62 121.707C152.921 121.886 153.172 122.156 153.37 122.517C153.569 122.878 153.669 123.362 153.669 123.969V129H152.495V127.966H152.436C152.356 128.132 152.224 128.309 152.038 128.498C151.852 128.687 151.605 128.848 151.297 128.98C150.989 129.113 150.613 129.179 150.169 129.179ZM150.348 128.125C150.812 128.125 151.203 128.034 151.521 127.852C151.842 127.669 152.084 127.434 152.247 127.146C152.413 126.857 152.495 126.554 152.495 126.236V125.162C152.446 125.222 152.336 125.276 152.167 125.326C152.002 125.372 151.809 125.414 151.591 125.45C151.375 125.483 151.165 125.513 150.959 125.54C150.757 125.563 150.593 125.583 150.467 125.599C150.162 125.639 149.877 125.704 149.612 125.793C149.35 125.879 149.138 126.01 148.975 126.186C148.816 126.358 148.737 126.594 148.737 126.892C148.737 127.3 148.888 127.608 149.189 127.817C149.494 128.022 149.88 128.125 150.348 128.125ZM160.921 124.645V125.739H156.705V124.645H160.921ZM156.983 121.364V129H155.81V121.364H156.983ZM161.816 121.364V129H160.643V121.364H161.816ZM165.132 127.27L168.811 121.364H170.163V129H168.99V123.094L165.331 129H163.959V121.364H165.132V127.27ZM175.514 129.159C174.778 129.159 174.143 128.997 173.61 128.672C173.079 128.344 172.67 127.886 172.382 127.3C172.097 126.71 171.954 126.024 171.954 125.241C171.954 124.459 172.097 123.77 172.382 123.173C172.67 122.573 173.071 122.106 173.585 121.771C174.102 121.433 174.705 121.264 175.395 121.264C175.792 121.264 176.185 121.33 176.573 121.463C176.961 121.596 177.314 121.811 177.632 122.109C177.95 122.404 178.203 122.795 178.392 123.283C178.581 123.77 178.676 124.37 178.676 125.082V125.58H172.789V124.565H177.483C177.483 124.134 177.396 123.75 177.224 123.412C177.055 123.074 176.813 122.807 176.498 122.612C176.187 122.416 175.819 122.318 175.395 122.318C174.927 122.318 174.523 122.434 174.181 122.666C173.843 122.895 173.583 123.193 173.401 123.561C173.219 123.929 173.127 124.323 173.127 124.744V125.42C173.127 125.997 173.227 126.486 173.426 126.887C173.628 127.285 173.908 127.588 174.266 127.797C174.624 128.002 175.04 128.105 175.514 128.105C175.822 128.105 176.1 128.062 176.349 127.976C176.601 127.886 176.818 127.754 177 127.578C177.183 127.399 177.324 127.177 177.423 126.912L178.556 127.23C178.437 127.615 178.237 127.953 177.955 128.244C177.673 128.533 177.325 128.758 176.911 128.92C176.497 129.08 176.031 129.159 175.514 129.159Z" fill="black"/>
<path d="M91.0584 97.5034C90.7842 97.4712 90.5357 97.6673 90.5034 97.9416L89.9776 102.411C89.9454 102.685 90.1415 102.933 90.4158 102.966C90.69 102.998 90.9385 102.802 90.9708 102.528L91.4382 98.555L95.4108 99.0224C95.685 99.0546 95.9335 98.8585 95.9658 98.5842C95.998 98.31 95.8018 98.0615 95.5276 98.0292L91.0584 97.5034ZM105.608 117.31C105.779 117.527 106.093 117.564 106.31 117.392C106.527 117.221 106.564 116.907 106.392 116.69L106 117L105.608 117.31ZM91 98L90.6076 98.3098L105.608 117.31L106 117L106.392 116.69L91.3924 97.6902L91 98Z" fill="black"/>
</g>
<defs>
<clipPath id="clip0_194_2">
<rect width="200" height="200" fill="white"/>
</clipPath>
</defs>
</svg>
